#!OML:ASF G:\JayActor3\Patient Classification 1\Patient 1\Session 5\male.ASF
:FULLY-SPECIFIED
:DEGREES
497
root -5.78877 17.2325 14.2916 -7.45385 59.7845 -8.1302
lowerback 4.3584 -1.79354 1.87959
upperback 0.969451 -2.29907 -0.160045
thorax -1.52636 -1.15176 -1.08729
lowerneck -0.680734 -0.799601 0.579295
upperneck 5.24503 -1.18835 2.79146
head 1.75885 -0.512998 0.753236
rclavicle 1.88597e-014 -7.15625e-015
rhumerus -31.1602 -9.23212 -87.2535
rradius 20.389
rwrist 13.3076
rhand -18.9684 -5.97376
rfingers 7.12502
rthumb 7.33564 -35.8266
lclavicle 1.88597e-014 -7.15625e-015
lhumerus -32.2678 26.2311 75.0737
lradius 9.31483
lwrist -3.78122
lhand -22.0966 12.9015
lfingers 7.12502
lthumb 4.31546 42.8375
rfemur -13.7619 10.5085 24.7237
rtibia 31.0654
rfoot -13.0535 -2.28643
rtoes 9.8284
lfemur -2.75391 12.28 -20.9105
ltibia 14.3682
lfoot -9.93682 -0.244338
ltoes -0.122524
498
root -5.76462 17.2323 14.3145 -7.38609 59.7881 -8.15139
lowerback 4.3344 -1.78554 1.88326
upperback 0.966699 -2.28879 -0.15939
thorax -1.51555 -1.1466 -1.09
lowerneck -0.67219 -0.802829 0.579279
upperneck 5.2311 -1.19245 2.79706
head 1.75297 -0.515178 0.754897
rclavicle 4.12478e-015 2.38542e-015
rhumerus -31.1583 -9.28013 -87.2317
rradius 20.3525
rwrist 13.3608
rhand -18.9453 -5.94853
rfingers 7.12502
rthumb 7.35795 -35.8006
lclavicle 4.12478e-015 2.38542e-015
lhumerus -32.2607 26.2197 75.0944
lradius 9.34143
lwrist -3.83926
lhand -22.0768 12.8712
lfingers 7.12502
lthumb 4.33459 42.8068
rfemur -13.7252 10.5035 24.7703
rtibia 31.0617
rfoot -13.1807 -2.2559
rtoes 9.86022
lfemur -2.6886 12.266 -20.8737
ltibia 14.3142
lfoot -10.0499 -0.193196
ltoes -0.13834
499
root -5.74125 17.2318 14.3366 -7.32834 59.7882 -8.17582
lowerback 4.31382 -1.77679 1.88807
upperback 0.965751 -2.27734 -0.157316
thorax -1.50474 -1.14084 -1.09188
lowerneck -0.663455 -0.806378 0.579186
upperneck 5.21817 -1.19696 2.80189
head 1.74738 -0.517566 0.756329
rclavicle 1.07095e-014 1.59028e-014
rhumerus -31.154 -9.32332 -87.2126
rradius 20.3181
rwrist 13.4117
rhand -18.9244 -5.92412
rfingers 7.12502
rthumb 7.37814 -35.7755
lclavicle 1.07095e-014 1.59028e-014
lhumerus -32.2549 26.2083 75.1136
lradius 9.36504
lwrist -3.88562
lhand -22.0542 12.8567
lfingers 7.12502
lthumb 4.35642 42.7919
rfemur -13.6855 10.5001 24.8186
rtibia 31.059
rfoot -13.3065 -2.22539
rtoes 9.89414
lfemur -2.62142 12.2427 -20.8359
ltibia 14.2653
lfoot -10.1631 -0.130214
ltoes -0.155229
500
root -5.71858 17.2311 14.3579 -7.27734 59.7853 -8.20042
lowerback 4.2955 -1.76721 1.89343
upperback 0.966777 -2.26472 -0.154744
thorax -1.49312 -1.13447 -1.0936
lowerneck -0.654234 -0.810262 0.579595
upperneck 5.20515 -1.20188 2.8062
head 1.74167 -0.520171 0.757504
rclavicle 6.12257e-014 -5.56597e-015
rhumerus -31.1473 -9.36139 -87.1972
rradius 20.2864
rwrist 13.4579
rhand -18.9053 -5.89794
rfingers 7.12502
rthumb 7.39656 -35.7486
lclavicle 6.12257e-014 -5.56597e-015
lhumerus -32.2508 26.1958 75.1303
lradius 9.38687
lwrist -3.92105
lhand -22.0429 12.8389
lfingers 7.12502
lthumb 4.36739 42.7738
rfemur -13.6429 10.4955 24.8665
rtibia 31.0571
rfoot -13.4309 -2.19204
rtoes 9.93138
lfemur -2.55277 12.211 -20.7989
ltibia 14.2215
lfoot -10.2765 -0.0571109
ltoes -0.174777
501
root -5.69659 17.2302 14.3785 -7.23007 59.7801 -8.22287
lowerback 4.27876 -1.75726 1.89775
upperback 0.969226 -2.25161 -0.151829
thorax -1.48086 -1.12782 -1.09437
lowerneck -0.646737 -0.814107 0.581328
upperneck 5.19412 -1.20678 2.80864
head 1.73687 -0.522734 0.757872
rclavicle -9.32549e-014 -1.27222e-014
rhumerus -31.1383 -9.39893 -87.1835
rradius 20.2556
rwrist 13.5035
rhand -18.8879 -5.87093
rfingers 7.12502
rthumb 7.41331 -35.721
lclavicle -9.32549e-014 -1.27222e-014
lhumerus -32.2483 26.1835 75.1445
lradius 9.40618
lwrist -3.94757
lhand -22.0407 12.8105
lfingers 7.12502
lthumb 4.36942 42.7454
rfemur -13.5982 10.4877 24.9127
rtibia 31.0558
rfoot -13.5541 -2.15487
rtoes 9.9739
lfemur -2.48346 12.1742 -20.7635
ltibia 14.1824
lfoot -10.3895 0.020852
ltoes -0.192367
502
root -5.67527 17.2292 14.3983 -7.18588 59.7739 -8.24365
lowerback 4.26222 -1.74736 1.9014
upperback 0.973063 -2.2386 -0.148867
thorax -1.46726 -1.12119 -1.09473
lowerneck -0.640394 -0.818027 0.584018
upperneck 5.18398 -1.2118 2.81014
head 1.73255 -0.525339 0.757782
rclavicle 2.23633e-014 -1.51076e-014
rhumerus -31.1272 -9.4348 -87.1727
rradius 20.2264
rwrist 13.5459
rhand -18.8728 -5.84285
rfingers 7.12502
rthumb 7.42794 -35.6924
lclavicle 2.23633e-014 -1.51076e-014
lhumerus -32.2467 26.1708 75.1555
lradius 9.42357
lwrist -3.96241
lhand -22.0314 12.801
lfingers 7.12502
lthumb 4.37841 42.7357
rfemur -13.5521 10.4774 24.9573
rtibia 31.0551
rfoot -13.6768 -2.1161
rtoes 10.0201
lfemur -2.41422 12.1359 -20.7293
ltibia 14.1468
lfoot -10.5016 0.0997547
ltoes -0.213699
503
root -5.65461 17.228 14.4175 -7.14424 59.7682 -8.26303
lowerback 4.24609 -1.73802 1.90427
upperback 0.977376 -2.22635 -0.145791
thorax -1.45339 -1.11493 -1.09449
lowerneck -0.635242 -0.821389 0.586142
upperneck 5.1756 -1.21617 2.81286
head 1.72902 -0.527571 0.758189
rclavicle 1.2434e-013 -1.27222e-014
rhumerus -31.1153 -9.47073 -87.1637
rradius 20.1982
rwrist 13.5866
rhand -18.8595 -5.81311
rfingers 7.12502
rthumb 7.44081 -35.6623
lclavicle 1.2434e-013 -1.27222e-014
lhumerus -32.2463 26.1581 75.1636
lradius 9.43826
lwrist -3.9708
lhand -22.0236 12.7994
lfingers 7.12502
lthumb 4.38594 42.734
rfemur -13.5051 10.467 25.0004
rtibia 31.0548
rfoot -13.8001 -2.07931
rtoes 10.0708
lfemur -2.34557 12.1008 -20.6957
ltibia 14.1136
lfoot -10.6111 0.171924
ltoes -0.231268
504
root -5.63454 17.2267 14.4361 -7.10527 59.7622 -8.28201
lowerback 4.22955 -1.72912 1.90676
upperback 0.981737 -2.21471 -0.142276
thorax -1.43924 -1.10897 -1.09355
lowerneck -0.630188 -0.824975 0.589261
upperneck 5.16821 -1.22081 2.81391
head 1.72579 -0.529939 0.757897
rclavicle 6.24184e-014 1.59028e-015
rhumerus -31.1042 -9.50292 -87.1576
rradius 20.1719
rwrist 13.6208
rhand -18.8487 -5.77784
rfingers 7.12502
rthumb 7.45118 -35.6266
lclavicle 6.24184e-014 1.59028e-015
lhumerus -32.2478 26.1454 75.1679
lradius 9.44941
lwrist -3.97427
lhand -22.0105 12.8139
lfingers 7.12502
lthumb 4.39858 42.7482
rfemur -13.4578 10.4592 25.0428
rtibia 31.055
rfoot -13.924 -2.04627
rtoes 10.1224
lfemur -2.27779 12.073 -20.6618
ltibia 14.082
lfoot -10.7175 0.234304
ltoes -0.250995
505
root -5.61501 17.2254 14.454 -7.06642 59.757 -8.29826
lowerback 4.21173 -1.72082 1.90813
upperback 0.986013 -2.20396 -0.139058
thorax -1.42445 -1.10345 -1.09228
lowerneck -0.624516 -0.828478 0.59277
upperneck 5.16112 -1.22533 2.81477
head 1.72255 -0.532243 0.757485
rclavicle -4.32854e-014 -3.97569e-015
rhumerus -31.0937 -9.53464 -87.1538
rradius 20.1474
rwrist 13.6524
rhand -18.8383 -5.74476
rfingers 7.12502
rthumb 7.46123 -35.5932
lclavicle -4.32854e-014 -3.97569e-015
lhumerus -32.2498 26.1323 75.1689
lradius 9.45596
lwrist -3.97312
lhand -21.9959 12.8368
lfingers 7.12502
lthumb 4.41268 42.7708
rfemur -13.4104 10.4541 25.083
rtibia 31.0556
rfoot -14.0485 -2.01781
rtoes 10.1772
lfemur -2.21091 12.0514 -20.6291
ltibia 14.0511
lfoot -10.8201 0.287424
ltoes -0.265833
506
root -5.59604 17.2241 14.4714 -7.02697 59.7534 -8.3118
lowerback 4.19225 -1.71356 1.90755
upperback 0.989891 -2.19471 -0.135781
thorax -1.40912 -1.09867 -1.08981
lowerneck -0.621171 -0.831383 0.596434
upperneck 5.15692 -1.22913 2.81513
head 1.72063 -0.534141 0.756909
rclavicle 6.13748e-014 -1.03368e-014
rhumerus -31.0848 -9.56184 -87.1533
rradius 20.1252
rwrist 13.6786
rhand -18.8289 -5.71195
rfingers 7.12502
rthumb 7.47035 -35.56
lclavicle 6.13748e-014 -1.03368e-014
lhumerus -32.2513 26.1203 75.1672
lradius 9.45649
lwrist -3.96928
lhand -21.9889 12.8501
lfingers 7.12502
lthumb 4.41946 42.784
rfemur -13.3637 10.4524 25.1208
rtibia 31.0566
rfoot -14.1733 -1.99514
rtoes 10.234
lfemur -2.14522 12.034 -20.598
ltibia 14.0201
lfoot -10.9192 0.332589
ltoes -0.28233
